<svg height='1600' width='1600' xmlns='http://www.w3.org/2000/svg'>
    <g transform="translate(460, 250)">
        <path d="M585,553 C585,553,119,87,119,87 C113,81,104,77,96,77 C88,77,79,81,73,87 C73,87,23,137,23,137 C17,143,13,152,13,160 C13,168,17,177,23,183 C23,183,416,576,416,576 C416,576,23,969,23,969 C17,975,13,984,13,992 C13,1001,17,1009,23,1015 C23,1015,73,1065,73,1065 C79,1071,88,1075,96,1075 C104,1075,113,1071,119,1065 C119,1065,585,599,585,599 C591,593,595,584,595,576 C595,568,591,559,585,553Z"/>
    </g>
</svg>
